<?xml version="1.0" standalone="no"?>
<!DOCTYPE svg PUBLIC "-//W3C//DTD SVG 20010904//EN"
 "http://www.w3.org/TR/2001/REC-SVG-20010904/DTD/svg10.dtd">
<svg version="1.0" xmlns="http://www.w3.org/2000/svg"
 width="370.000000pt" height="370.000000pt" viewBox="0 0 370.000000 370.000000"
 preserveAspectRatio="xMidYMid meet">
<metadata>
Created by potrace 1.11, written by Peter Selinger 2001-2013
</metadata>
<g transform="translate(0.000000,370.000000) scale(0.100000,-0.100000)"
fill="#000000" stroke="none">
<path d="M954 3507 c19 -62 34 -122 32 -124 -1 -1 -76 -5 -167 -8 -90 -3 -225
-7 -299 -10 -74 -3 -214 -8 -310 -11 -96 -3 -181 -6 -188 -7 -8 0 181 -195
418 -432 l432 -432 -74 -38 c-40 -21 -122 -63 -183 -95 -60 -32 -186 -97 -280
-145 -176 -91 -194 -102 -173 -102 7 0 53 -5 103 -12 50 -6 106 -14 125 -16
190 -25 282 -36 320 -41 25 -3 56 -7 70 -9 14 -2 48 -7 75 -11 28 -3 51 -7 53
-9 2 -1 -31 -45 -73 -97 l-76 -95 -102 37 c-56 21 -132 49 -169 63 l-67 26 -3
-22 c-2 -12 -1 -36 0 -53 l4 -32 96 -17 c109 -20 140 -25 162 -30 8 -2 21 -4
28 -4 20 -1 14 -15 -24 -60 -20 -23 -34 -44 -32 -46 2 -3 110 -32 239 -66 129
-34 237 -64 241 -68 4 -4 -33 -67 -82 -141 -50 -74 -90 -138 -90 -142 0 -4 8
-5 18 -3 10 1 45 7 77 11 33 4 62 8 65 9 3 1 34 5 70 9 36 5 72 10 81 11 9 2
40 6 70 10 30 3 67 8 82 11 40 6 41 7 51 5 7 -1 -174 -123 -365 -246 -34 -22
-73 -47 -85 -55 -13 -8 -65 -42 -116 -75 -158 -101 -222 -145 -212 -146 5 0
18 -2 29 -3 11 -2 45 -6 75 -10 30 -3 66 -8 80 -10 14 -3 48 -7 75 -10 28 -4
61 -8 75 -11 14 -3 52 -7 85 -10 33 -3 67 -7 75 -10 8 -2 36 -6 63 -9 26 -3
68 -9 95 -12 26 -4 52 -7 58 -7 9 0 -104 -400 -121 -428 -20 -32 27 10 173
153 90 90 175 173 187 185 17 16 25 19 34 10 6 -6 11 -14 11 -18 0 -5 125
-215 135 -227 2 -2 63 43 137 100 178 139 162 133 153 53 -4 -38 -9 -78 -10
-89 -2 -12 -9 -65 -15 -120 -7 -54 -13 -107 -15 -117 -5 -24 6 -24 26 -2 15
17 146 138 200 184 13 11 42 37 64 58 22 20 141 128 265 241 386 349 343 303
346 374 4 92 12 120 40 147 49 46 147 18 189 -54 17 -28 17 -28 37 -10 45 40
111 146 139 225 28 74 30 91 25 158 -3 41 -8 86 -11 100 -5 21 0 29 38 53 67
41 137 114 160 166 17 37 21 69 23 163 2 109 5 123 33 185 l32 67 -28 24 c-15
13 -133 112 -260 219 -128 107 -233 199 -233 204 0 6 11 27 25 47 28 41 30 59
12 83 -7 8 -113 91 -236 183 l-224 168 -53 -21 -53 -20 2 169 c2 151 0 171
-16 187 -17 17 -64 18 -843 20 l-826 2 6 -22z"/>
</g>
</svg>
