<?xml version="1.0" encoding="utf-8"?>
<!-- Generator: Adobe Illustrator 22.0.1, SVG Export Plug-In . SVG Version: 6.00 Build 0)  -->
<svg version="1.2" baseProfile="tiny" id="Слой_1"
	 xmlns="http://www.w3.org/2000/svg" xmlns:xlink="http://www.w3.org/1999/xlink" x="0px" y="0px" width="200px" height="100px"
	 viewBox="0 0 200 100" xml:space="preserve">
<g>
	<g>
		<path fill="#545D68" d="M104.551,64.325c-0.472-0.088-0.857-0.208-1.156-0.359v-1.161c0.775,0.379,1.611,0.568,2.507,0.568
			c1.26,0,1.89-0.441,1.89-1.325c0-0.303-0.068-0.546-0.206-0.731c-0.137-0.185-0.335-0.347-0.593-0.485
			c-0.259-0.139-0.679-0.33-1.26-0.574c-0.8-0.337-1.377-0.707-1.732-1.11s-0.532-0.912-0.532-1.526c0-0.463,0.121-0.873,0.363-1.23
			s0.581-0.635,1.017-0.832c0.437-0.198,0.937-0.297,1.502-0.297c0.46,0,0.876,0.038,1.248,0.113
			c0.371,0.076,0.734,0.198,1.09,0.366v1.11c-0.703-0.328-1.413-0.492-2.132-0.492c-0.581,0-1.025,0.109-1.332,0.328
			c-0.308,0.219-0.46,0.529-0.46,0.934c0,0.277,0.066,0.511,0.199,0.7c0.134,0.189,0.331,0.357,0.594,0.505
			c0.262,0.146,0.651,0.33,1.169,0.548c0.573,0.244,1.025,0.476,1.356,0.694s0.583,0.485,0.757,0.801s0.26,0.709,0.26,1.18
			c0,0.766-0.262,1.358-0.787,1.779c-0.524,0.421-1.3,0.631-2.325,0.631C105.502,64.458,105.023,64.414,104.551,64.325z"/>
		<path fill="#545D68" d="M116.486,55.45h1.235v3.784h4.421V55.45h1.235v8.818h-1.235v-3.949h-4.421v3.949h-1.235V55.45z"/>
		<path fill="#545D68" d="M132.945,63.884c-0.678-0.383-1.211-0.923-1.599-1.621c-0.387-0.698-0.581-1.497-0.581-2.397
			c0-0.899,0.194-1.698,0.581-2.396c0.388-0.698,0.921-1.241,1.599-1.628c0.679-0.387,1.438-0.58,2.277-0.58s1.599,0.193,2.277,0.58
			c0.678,0.387,1.211,0.93,1.599,1.628s0.581,1.497,0.581,2.396c0,0.9-0.193,1.699-0.581,2.397s-0.921,1.238-1.599,1.621
			c-0.679,0.383-1.438,0.574-2.277,0.574S133.624,64.267,132.945,63.884z M136.852,62.874c0.488-0.281,0.874-0.681,1.157-1.198
			c0.282-0.517,0.424-1.12,0.424-1.811c0-0.681-0.14-1.28-0.418-1.798c-0.278-0.517-0.66-0.916-1.145-1.198
			c-0.484-0.281-1.025-0.423-1.623-0.423c-0.605,0-1.152,0.139-1.642,0.417c-0.488,0.277-0.876,0.677-1.162,1.198
			c-0.287,0.521-0.43,1.123-0.43,1.804c0,0.69,0.141,1.294,0.424,1.811c0.282,0.518,0.668,0.917,1.156,1.198
			c0.488,0.282,1.031,0.423,1.629,0.423S136.363,63.156,136.852,62.874z"/>
		<path fill="#545D68" d="M147.068,55.45h3.258c0.913,0,1.633,0.237,2.162,0.713c0.529,0.475,0.793,1.149,0.793,2.024
			c0,0.892-0.262,1.566-0.787,2.025c-0.524,0.458-1.247,0.688-2.168,0.688h-2.022v3.368h-1.235V55.45z M150.193,59.828
			c0.565,0,1.013-0.122,1.345-0.366c0.33-0.244,0.496-0.669,0.496-1.274s-0.166-1.032-0.496-1.28
			c-0.332-0.248-0.779-0.372-1.345-0.372h-1.89v3.293H150.193z"/>
	</g>
	<g>
		<path fill="#384048" d="M102.543,38.533h3.041v7.713h4.143v2.556h-7.184V38.533z"/>
		<path fill="#384048" d="M118.821,48.421c-0.715-0.401-1.246-0.955-1.594-1.66c-0.349-0.706-0.521-1.513-0.521-2.424v-5.803h3.041
			v5.774c0,0.627,0.149,1.102,0.448,1.425c0.298,0.323,0.736,0.485,1.314,0.485s1.016-0.162,1.315-0.485
			c0.298-0.323,0.447-0.798,0.447-1.425v-5.774h3.042v5.803c0,0.911-0.175,1.719-0.522,2.424c-0.348,0.705-0.879,1.259-1.594,1.66
			s-1.611,0.603-2.688,0.603S119.536,48.822,118.821,48.421z"/>
		<path fill="#384048" d="M137.303,43.646l-3.673-5.113h3.482l1.924,2.688l1.939-2.688h3.482l-3.673,5.113l3.702,5.157h-3.482
			l-1.969-2.733l-1.969,2.733h-3.481L137.303,43.646z"/>
		<path fill="#384048" d="M153.876,48.421c-0.715-0.401-1.246-0.955-1.594-1.66c-0.349-0.706-0.521-1.513-0.521-2.424v-5.803h3.041
			v5.774c0,0.627,0.149,1.102,0.448,1.425c0.298,0.323,0.736,0.485,1.314,0.485s1.016-0.162,1.315-0.485
			c0.298-0.323,0.447-0.798,0.447-1.425v-5.774h3.042v5.803c0,0.911-0.175,1.719-0.522,2.424c-0.348,0.705-0.879,1.259-1.594,1.66
			s-1.611,0.603-2.688,0.603S154.591,48.822,153.876,48.421z"/>
		<path fill="#384048" d="M168.935,38.533h4.774c1.234,0,2.209,0.311,2.924,0.933s1.072,1.521,1.072,2.696
			c0,0.764-0.159,1.416-0.478,1.954s-0.771,0.95-1.358,1.234l1.719,3.453h-3.115l-1.498-3.012h-0.999v3.012h-3.041V38.533z
			 M173.106,43.381c0.471,0,0.835-0.09,1.095-0.271s0.39-0.497,0.39-0.948s-0.13-0.766-0.39-0.948
			c-0.26-0.181-0.624-0.271-1.095-0.271h-1.131v2.438H173.106z"/>
		<path fill="#384048" d="M188.504,44.895l-3.746-6.361h3.247l2.027,3.541l2.159-3.541h3.232l-3.879,6.361v3.908h-3.041V44.895z"/>
	</g>
	<g>
		<g>
			<g>
				<path fill="#7EC0C2" d="M88.04,42.348c-0.505,1.006-0.652,1.987-0.525,3.163c0.06,0.537,0.074,1.04,0.067,1.527
					c0,1.39-0.479,2.75-0.511,2.839c-0.014,0.04-0.212,0.553-0.527,1.084c-0.137,0.224-0.292,0.436-0.458,0.647
					c-1.347,1.609-4.109,3.245-4.109,3.245s0.421,1.593,0.461,1.753c0.166,0.655,0.214,1.352,0.157,2.073
					c-0.07,1.639-1.092,3.923-1.098,3.935c-0.007,0.019-0.895,2.284-3.324,4.744c-1.109-1.924-2.593-2.663-3.794-2.565
					c-0.983,0.072-1.837,0.941-2.054,1.891c0,0.001-0.065,0.139-0.114,0.657l-0.117,3.086c-0.464,0.406-21.41,19.423-21.575,19.571
					l0,0l1.257-10.21l-7.193,5.591l-3.78-6.328l-9.245,9.067l3.222-10.565l-17.463-2.296l19.432-12.626l-13.145,1.811l4.67-6.956
					l-11.978-3.134l1.975-2.459l-7.499-1.44v-2.434l8.165,3.043l3.818-4.747L4.313,43.944l17.383-8.978L1,14.244l23.58-0.805
					l-1.071-3.541H62.52c1.212,0.377,1.702,1.305,1.528,2.526l-0.122,3.548l-0.101,3.013L66.426,18l2.94,2.202l6.967,5.214
					c1.136,0.827,1.323,1.242,1.324,1.247c0.079,0.141,0.118,0.28,0.118,0.429c0,0.217-0.085,0.456-0.263,0.748
					c-0.138,0.224-0.312,0.469-0.562,0.774c-0.292,0.363-0.481,0.688-0.55,0.988l7.46,6.231l4.136,3.454l0.521,0.438l0.504,0.418
					C88.684,40.888,88.401,41.635,88.04,42.348z"/>
			</g>
			<polygon fill="#62B6D9" points="40.803,79.052 44.583,85.38 51.777,79.789 41.437,78.429 			"/>
			<polygon fill="#62B6D9" points="73.965,53.613 75.681,53.329 76.284,47.984 66.875,54.916 66.875,54.916 66.875,54.916 
				68.53,57.607 75.455,55.321 75.585,54.187 			"/>
			<path fill="#62B6D9" d="M63.392,58.965l-2.452,0.338l-0.003,0.004L47.371,72.611l4.405,7.178l-1.257,10.21c0,0-0.002,0.004,0,0
				l17.216-27.274L63.392,58.965z"/>
			<path fill="#59ADC6" d="M76.284,47.984l2.833,4.777l6.969-1.153c0.166-0.212,0.32-0.423,0.458-0.647l-1.371-2.455L76.284,47.984z
				"/>
			<path fill="#59AFC8" d="M82.595,58.679c0.057-0.722,0.009-1.418-0.157-2.073l-1.339-0.472L82.595,58.679z"/>
			<polygon fill="#5BADAA" points="28.274,57.488 23.604,64.444 36.749,62.632 39.963,60.547 			"/>
			<polygon fill="#5BADAA" points="47.936,45.764 36.892,44.671 38.207,51.498 38.207,51.498 39.963,60.547 60.939,59.303 
				60.939,59.303 60.939,59.303 63.444,57.453 			"/>
			<polygon fill="#59A5A0" points="60.939,59.303 65.135,58.724 63.444,57.453 			"/>
			<path fill="#56AAC6" d="M67.736,62.724L50.52,89.998c0,0,21.111-19.166,21.575-19.571l0.117-3.086
				c0.049-0.518,0.114-0.655,0.114-0.657L67.736,62.724z"/>
			<polygon fill="#99C5D0" points="36.749,62.632 17.317,75.258 34.78,77.554 39.438,62.263 			"/>
			<polygon fill="#5CACBD" points="41.437,78.429 51.777,79.789 47.371,72.611 			"/>
			<polygon fill="#5AA598" points="39.963,60.547 36.749,62.632 39.438,62.263 			"/>
			<polygon fill="#D18D90" points="30.787,44.068 32.036,47.511 22.756,46.318 18.938,51.065 24.261,53.046 18.272,51.896 
				16.297,54.355 28.274,57.488 34.672,47.957 			"/>
			<polygon fill="#436268" points="38.207,51.498 34.672,47.957 28.274,57.488 39.963,60.547 			"/>
			<polygon fill="#5698B7" points="10.773,48.022 10.773,50.456 18.272,51.896 18.938,51.065 			"/>
			<polygon fill="#495F74" points="18.938,51.065 18.272,51.896 24.261,53.046 			"/>
			<polygon fill="#62B6D9" points="21.696,34.966 4.313,43.944 22.756,46.318 27.338,40.615 			"/>
			<polygon fill="#586D81" points="30.787,44.068 30.787,44.068 30.787,44.068 30.787,44.068 27.338,40.615 22.756,46.318 
				32.036,47.511 			"/>
			<polygon fill="#E2BCBF" points="36.89,44.656 40.105,39.867 35.265,36.22 35.262,36.22 			"/>
			<polygon fill="#548F8D" points="36.89,44.656 36.892,44.671 47.936,45.764 40.105,39.867 			"/>
			<polygon fill="#80B99D" points="28.855,38.729 32.53,34.157 24.261,27.929 28.519,26.451 24.58,13.438 1,14.244 21.696,34.966 
				26.577,32.443 			"/>
			<polygon fill="#616760" points="30.787,44.068 30.787,44.068 34.672,47.957 36.879,44.671 			"/>
			<polygon fill="#616760" points="35.251,36.241 35.242,36.203 32.53,34.157 28.855,38.729 30.787,44.068 			"/>
			<polygon fill="#3F6156" points="36.879,44.671 34.672,47.957 38.207,51.498 36.885,44.671 			"/>
			<polygon fill="#59A793" points="28.855,38.729 26.577,32.443 21.696,34.966 27.338,40.615 			"/>
			<polygon fill="#42625F" points="28.855,38.729 27.338,40.615 30.787,44.068 30.787,44.068 			"/>
			<polygon fill="#58524F" points="35.251,36.241 30.787,44.068 36.879,44.671 36.883,44.664 			"/>
			<polygon fill="#C98DAB" points="31.118,14.741 35.678,9.9 23.509,9.9 24.58,13.438 30.825,13.225 			"/>
			<polygon fill="#C98DAB" points="36.816,22.572 40.511,18.414 31.379,16.088 33.072,24.871 37.617,23.294 			"/>
			<polygon fill="#61686E" points="33.072,24.871 31.379,16.088 30.145,15.774 31.118,14.741 30.825,13.225 24.58,13.438 
				28.519,26.451 			"/>
			<polygon fill="#CD5871" points="40.085,22.438 45.696,20.49 59.619,43.123 59.622,43.123 54.408,21.953 43.527,19.183 			"/>
			<polygon fill="#BC5A69" points="37.617,23.294 40.085,22.438 43.527,19.183 40.511,18.414 36.816,22.572 			"/>
			<polygon fill="#DDA1AF" points="57.339,46.875 59.622,43.123 59.619,43.123 38.417,24.014 33.758,28.42 35.262,36.217 
				35.265,36.22 38.064,31.304 47.936,45.766 63.444,57.453 66.875,54.916 62.1,47.153 			"/>
			<polygon fill="#5B80A0" points="63.444,57.453 65.137,58.724 65.135,58.724 65.137,58.728 68.53,57.607 66.875,54.916 			"/>
			<polygon fill="#D38892" points="40.105,39.867 47.936,45.766 38.064,31.304 35.265,36.22 40.105,39.867 			"/>
			<polygon fill="#6C7A74" points="35.242,36.203 35.262,36.217 33.758,28.42 30.145,31.834 28.519,26.451 24.261,27.929 
				32.53,34.157 34.395,31.834 			"/>
			<polygon fill="#564749" points="34.395,31.834 32.53,34.157 35.242,36.203 			"/>
			<polygon fill="#C1738E" points="38.417,24.014 37.617,23.294 33.072,24.871 33.758,28.42 			"/>
			<polygon fill="#584C57" points="33.758,28.42 33.072,24.871 28.519,26.451 30.145,31.834 			"/>
			<polygon fill="#BC5967" points="45.696,20.49 40.085,22.438 38.417,24.014 59.619,43.123 			"/>
			<polygon fill="#B95A62" points="37.617,23.294 38.417,24.014 40.085,22.438 			"/>
			<polygon fill="#5CAEB5" points="70.07,25.952 68.785,28.064 72.179,28.969 69.977,33.472 67.696,29.855 59.622,43.123 
				62.1,47.153 62.1,47.153 62.1,47.153 76.284,47.984 74.803,43.818 81.216,45.433 76.351,41.744 80.863,40.792 72.986,26.684 
				70.07,25.952 70.07,25.952 			"/>
			<polygon fill="#59A49F" points="81.216,45.433 74.803,43.818 76.284,47.984 85.172,48.505 85.104,48.384 			"/>
			<polygon fill="#507584" points="62.1,47.153 59.622,43.123 57.339,46.875 			"/>
			<polygon fill="#363749" points="67.696,29.855 69.977,33.472 72.179,28.969 68.785,28.064 67.953,29.431 			"/>
			<polygon fill="#BC6775" points="53.132,16.768 54.408,21.953 54.41,21.953 54.408,21.953 55.012,22.107 70.07,25.952 
				71.375,23.804 69.366,20.201 66.426,18 63.825,18.984 63.927,15.97 			"/>
			<polygon fill="#BC6775" points="45.43,9.9 36.699,9.9 41.79,13.99 			"/>
			<polygon fill="#AA596B" points="31.379,16.088 40.511,18.414 41.189,17.649 38.346,17.86 41.79,13.99 36.699,9.9 35.678,9.9 
				31.118,14.741 			"/>
			<polygon fill="#482F39" points="30.145,15.774 31.379,16.088 31.118,14.741 			"/>
			<polygon fill="#B75A59" points="54.408,21.953 53.132,16.768 45.484,17.332 43.527,19.183 			"/>
			<polygon fill="#BC6774" points="45.484,17.332 41.189,17.649 40.511,18.414 43.527,19.183 			"/>
			<polygon fill="#394152" points="71.375,23.804 70.07,25.952 72.986,26.684 			"/>
			<polygon fill="#6F88A2" points="75.455,55.321 76.713,54.907 81.435,62.439 78.912,55.36 75.585,54.187 			"/>
			<polygon fill="#6F88A2" points="78.051,52.938 76.284,47.984 75.681,53.329 			"/>
			<polygon fill="#4E798B" points="76.284,47.984 78.051,52.938 79.117,52.761 			"/>
			<path fill="#4E798B" d="M78.912,55.36l2.523,7.078l0.062,0.178c0.005-0.015,1.028-2.298,1.098-3.938l-1.496-2.545L78.912,55.36z"
				/>
			<polygon fill="#4F7F81" points="34.78,77.554 31.558,88.12 40.803,79.052 40.346,78.287 			"/>
			<polygon fill="#508082" points="40.896,62.063 45.988,70.362 60.936,59.307 60.939,59.303 			"/>
			<polygon fill="#4E7B7E" points="40.346,78.287 40.803,79.052 41.437,78.429 			"/>
			<polygon fill="#4E7B7E" points="47.371,72.611 60.936,59.307 45.988,70.362 			"/>
			<polygon fill="#4B7A6D" points="60.939,59.303 39.963,60.547 40.896,62.063 60.939,59.303 			"/>
			<polygon fill="#4E7A77" points="38.794,75.683 45.988,70.362 40.896,62.063 39.438,62.263 34.78,77.554 40.346,78.287 			"/>
			<polygon fill="#4B7572" points="38.794,75.683 40.346,78.287 41.437,78.429 47.371,72.611 45.988,70.362 			"/>
			<polygon fill="#497667" points="39.438,62.263 40.896,62.063 39.963,60.547 			"/>
			<path fill="#57ACC8" d="M75.455,55.321l-6.924,2.286l4.217,6.854l-7.611-5.733l-1.745,0.237c0,0,8.934,7.723,8.934,7.719
				c0.217-0.949,1.072-1.819,2.054-1.891L75.455,55.321z"/>
			<polygon fill="#507A97" points="72.748,64.46 68.53,57.607 65.137,58.728 			"/>
			<path fill="#528098" d="M81.435,62.439l-4.722-7.532l-1.259,0.414l-1.075,9.472c0,0,0.002,0,0,0
				c1.201-0.098,2.687,0.641,3.791,2.565c2.432-2.46,3.321-4.725,3.327-4.741L81.435,62.439z"/>
			<path fill="#83676E" d="M82.753,40.394l2.032-0.431l-0.924-4.131l0,0l0,0l-7.46-6.231c0.069-0.3,0.258-0.626,0.55-0.988
				c0.25-0.303,0.424-0.549,0.562-0.774l-2.876-0.735L82.753,40.394z"/>
			<path fill="#354E59" d="M86.985,49.812l-1.881-1.428l1.44,2.577c0.315-0.53,0.512-1.044,0.527-1.084L86.985,49.812z"/>
			<polygon fill="#324D53" points="80.863,40.792 82.753,40.394 74.637,27.104 72.986,26.684 			"/>
			<path fill="#70454B" d="M71.998,22.783l2.639,4.321l2.876,0.735l0,0c0.298-0.491,0.338-0.831,0.145-1.176
				c-0.005-0.005-0.188-0.42-1.324-1.247l-6.967-5.214l2.01,3.603L71.998,22.783z"/>
			<polygon fill="#1A1E2B" points="74.637,27.104 71.998,22.783 71.375,23.804 72.986,26.684 			"/>
			<polygon fill="#AD564C" points="43.335,15.233 48.077,9.9 45.43,9.9 41.79,13.99 			"/>
			<path fill="#AD564C" d="M63.927,15.97l0.122-3.546c0.174-1.221-0.317-2.149-1.528-2.523H51.441l1.691,6.868L63.927,15.97z"/>
			<polygon fill="#9E4E4C" points="41.79,13.99 38.346,17.86 41.189,17.649 43.335,15.233 			"/>
			<polygon fill="#A75449" points="45.696,17.133 45.484,17.332 53.132,16.768 51.441,9.9 48.077,9.9 43.335,15.233 			"/>
			<polygon fill="#9C4D49" points="45.696,17.133 43.335,15.233 41.189,17.649 45.484,17.332 			"/>
			<polygon fill="#415F6F" points="73.927,53.622 75.585,54.187 75.681,53.329 			"/>
			<path fill="#476377" d="M81.099,56.134l1.339,0.472c-0.04-0.159-0.461-1.753-0.461-1.753s2.762-1.636,4.109-3.245l-6.969,1.153
				L81.099,56.134z"/>
			<polygon fill="#394A5B" points="75.681,53.329 75.585,54.187 78.912,55.36 78.051,52.938 			"/>
			<polygon fill="#2E404D" points="78.912,55.36 81.099,56.134 79.117,52.761 78.051,52.938 			"/>
			<polygon fill="#E2BCBF" points="67.696,29.855 66.116,27.35 68.785,28.064 70.07,25.952 55.012,22.107 54.41,21.953 
				59.622,43.123 			"/>
			<polygon fill="#C95A67" points="68.785,28.064 66.116,27.35 67.696,29.855 67.953,29.431 			"/>
			<polygon fill="#D99F99" points="84.785,39.963 87.996,39.286 83.861,35.832 			"/>
			<path fill="#D27E62" d="M89.021,40.142l-0.504-0.418l-3.51,1.236l1.1,4.924l0.564,0.923l0.91,0.23
				c0.008-0.487-0.007-0.992-0.067-1.527c-0.127-1.176,0.02-2.157,0.525-3.163C88.403,41.635,88.684,40.89,89.021,40.142z"/>
			<polygon fill="#3D524A" points="81.216,45.433 83.824,46.089 80.863,40.792 76.351,41.744 			"/>
			<polygon fill="#324D44" points="85.104,48.384 83.824,46.089 81.216,45.433 			"/>
			<polygon fill="#7D5046" points="86.108,45.885 84.785,39.963 82.753,40.394 			"/>
			<path fill="#3A504C" d="M86.672,46.808l-0.564-0.923l0.184,0.827l0.42,1.885l-1.439-0.085l1.711,1.299l0.085,0.065
				c0.032-0.089,0.511-1.449,0.511-2.839L86.672,46.808z"/>
			<polygon fill="#00201B" points="86.292,46.712 86.108,45.885 82.753,40.394 80.863,40.792 83.824,46.089 85.104,48.384 
				85.274,48.513 86.712,48.597 			"/>
			<polygon fill="#CB6A54" points="85.008,40.961 88.517,39.725 87.996,39.286 84.785,39.963 			"/>
			<polygon fill="#7EC0C2" points="62.1,47.153 66.875,54.916 76.284,47.984 			"/>
		</g>
	</g>
</g>
</svg>
